<svg width="64" height="64" viewBox="0 0 64 64" fill="none" xmlns="http://www.w3.org/2000/svg">
<path fill-rule="evenodd" clip-rule="evenodd" d="M61.5 24.153V37.324C61.5 37.324 61.556 50.314 57.87 56.526C57.8248 56.5961 57.7628 56.6538 57.6896 56.6937C57.6164 56.7337 57.5344 56.7548 57.451 56.755C53.624 56.758 30.905 56.758 24.553 56.758C24.4671 56.7579 24.3827 56.7357 24.3079 56.6935C24.233 56.6513 24.1703 56.5906 24.1258 56.5171C24.0813 56.4437 24.0565 56.36 24.0537 56.2741C24.0509 56.1883 24.0703 56.1032 24.11 56.027L24.12 56.005C26.379 51.111 27.141 43.607 27.386 39.77C27.3945 39.6377 27.3501 39.5074 27.2625 39.4078C27.1749 39.3082 27.0513 39.2475 26.919 39.239C26.7867 39.2305 26.6564 39.2749 26.5568 39.3625C26.4572 39.4501 26.3965 39.5737 26.388 39.706C26.149 43.453 25.423 50.78 23.221 55.567C23.102 55.7956 23.044 56.051 23.0525 56.3085C23.061 56.566 23.1358 56.817 23.2696 57.0373C23.4034 57.2575 23.5917 57.4395 23.8163 57.5658C24.0409 57.692 24.2943 57.7582 24.552 57.758C30.905 57.758 53.625 57.758 57.451 57.755C57.964 57.755 58.441 57.492 58.716 57.058L58.723 57.047C62.516 50.671 62.5 37.321 62.5 37.321V24.153C62.5 24.0204 62.4473 23.8932 62.3536 23.7994C62.2598 23.7057 62.1326 23.653 62 23.653C61.8674 23.653 61.7402 23.7057 61.6464 23.7994C61.5527 23.8932 61.5 24.0204 61.5 24.153ZM26.5 9.677V10.346C26.5011 10.436 26.5256 10.5243 26.571 10.602L26.578 10.615C26.6232 10.6859 26.6856 10.7442 26.7594 10.7846C26.8332 10.825 26.9159 10.8461 27 10.846C27 10.846 27.5 10.805 27.5 10.337V9.677C27.5 9.54439 27.5527 9.41722 27.6464 9.32345C27.7402 9.22968 27.8674 9.177 28 9.177H47.607C47.7396 9.177 47.8668 9.12432 47.9606 9.03056C48.0543 8.93679 48.107 8.80961 48.107 8.677C48.107 8.54439 48.0543 8.41722 47.9606 8.32345C47.8668 8.22968 47.7396 8.177 47.607 8.177H28C27.6022 8.177 27.2206 8.33504 26.9393 8.61634C26.658 8.89765 26.5 9.27918 26.5 9.677Z" fill="#738BAB"/>
<path fill-rule="evenodd" clip-rule="evenodd" d="M61.816 21.835C61.9124 21.8726 62.0181 21.8795 62.1186 21.8547C62.2191 21.8298 62.3094 21.7745 62.3771 21.6962C62.4449 21.6179 62.4867 21.5206 62.4969 21.4176C62.5071 21.3146 62.4851 21.211 62.434 21.121C59.613 16.19 55.748 11.911 50.852 8.27597C50.7705 8.21566 50.6727 8.18152 50.5714 8.17808C50.4701 8.17465 50.3702 8.20208 50.2848 8.25674C50.1994 8.3114 50.1327 8.3907 50.0935 8.48415C50.0542 8.57759 50.0443 8.68076 50.065 8.77997C50.802 12.301 51.164 15.864 50.807 19.507C50.783 19.7352 50.8118 19.9658 50.8912 20.1811C50.9706 20.3964 51.0986 20.5905 51.2651 20.7484C51.4316 20.9063 51.6322 21.0237 51.8513 21.0916C52.0705 21.1595 52.3024 21.1761 52.529 21.14C55.736 20.645 58.864 20.669 61.816 21.835Z" fill="#2D74FF"/>
<path fill-rule="evenodd" clip-rule="evenodd" d="M20.744 13.884C24.76 12.522 29.382 13.441 32.581 16.64C36.34 20.399 36.951 26.122 34.413 30.519C34.3784 30.5792 34.3566 30.6459 34.349 30.7149C34.3415 30.7839 34.3483 30.8537 34.369 30.92L35.944 35.913C35.9543 35.9461 35.9554 35.9814 35.9471 36.0151C35.9389 36.0487 35.9215 36.0795 35.897 36.104L35.763 36.238C35.7438 36.2567 35.7199 36.2699 35.6939 36.2762C35.6679 36.2825 35.6406 36.2818 35.615 36.274L30.597 34.691C30.5309 34.6702 30.4612 34.6634 30.3924 34.671C30.3235 34.6786 30.257 34.7004 30.197 34.735C25.8 37.273 20.077 36.663 16.318 32.904C11.83 28.416 11.83 21.128 16.318 16.64C16.4118 16.5461 16.4644 16.4188 16.4643 16.2862C16.4642 16.1535 16.4114 16.0263 16.3175 15.9325C16.2236 15.8388 16.0963 15.7861 15.9636 15.7862C15.831 15.7863 15.7038 15.8391 15.61 15.933C10.732 20.811 10.732 28.732 15.61 33.611C19.642 37.642 25.751 38.342 30.504 35.71L35.314 37.228C35.5142 37.2908 35.7277 37.2976 35.9315 37.2477C36.1352 37.1978 36.3215 37.0931 36.47 36.945L36.604 36.811C36.918 36.497 37.031 36.035 36.897 35.613L35.388 30.826C38.019 26.074 37.319 19.964 33.288 15.933C29.811 12.456 24.788 11.457 20.423 12.937C20.2989 12.9808 20.1971 13.0716 20.1396 13.1899C20.0821 13.3083 20.0735 13.4445 20.1158 13.5691C20.158 13.6936 20.2476 13.7966 20.3652 13.8555C20.4828 13.9145 20.6189 13.9247 20.744 13.884Z" fill="#738BAB"/>
<path fill-rule="evenodd" clip-rule="evenodd" d="M22.333 21.335C22.311 20.382 22.668 19.686 23.221 19.278C24.089 18.638 25.385 18.665 26.089 19.458C26.392 19.799 26.567 20.281 26.572 20.891C26.584 22.354 25.897 23.209 25.226 24.094C24.322 25.287 23.419 26.513 23.307 28.561C23.2951 28.8244 23.3878 29.0818 23.5648 29.2772C23.7417 29.4726 23.9887 29.5903 24.252 29.6045C24.5153 29.6187 24.7735 29.5284 24.9705 29.3532C25.1675 29.178 25.2874 28.9321 25.304 28.669C25.389 27.114 26.133 26.208 26.82 25.302C27.74 24.089 28.588 22.879 28.572 20.875C28.562 19.697 28.169 18.788 27.585 18.13C26.22 16.594 23.715 16.428 22.034 17.668C21.026 18.412 20.293 19.644 20.334 21.382C20.3343 21.5151 20.3612 21.6468 20.4131 21.7694C20.4649 21.8919 20.5408 22.0029 20.6361 22.0958C20.7314 22.1887 20.8443 22.2616 20.9682 22.3103C21.0921 22.359 21.2244 22.3825 21.3575 22.3794C21.4906 22.3762 21.6217 22.3466 21.7431 22.2921C21.8646 22.2376 21.9739 22.1595 22.0648 22.0622C22.1556 21.965 22.2262 21.8505 22.2722 21.7256C22.3183 21.6008 22.3389 21.4679 22.333 21.335Z" fill="#2D74FF"/>
<path d="M24.212 33.327C24.8913 33.327 25.442 32.7763 25.442 32.097C25.442 31.4177 24.8913 30.867 24.212 30.867C23.5327 30.867 22.982 31.4177 22.982 32.097C22.982 32.7763 23.5327 33.327 24.212 33.327Z" fill="#2D74FF"/>
<path fill-rule="evenodd" clip-rule="evenodd" d="M12.217 8.36403L16.217 13.396C16.3825 13.6021 16.6228 13.7343 16.8855 13.7638C17.1482 13.7932 17.4118 13.7174 17.6188 13.553C17.8257 13.3886 17.9592 13.1489 17.99 12.8864C18.0207 12.6239 17.9463 12.3598 17.783 12.152L13.783 7.12003C13.6175 6.91392 13.3772 6.78172 13.1145 6.75231C12.8518 6.7229 12.5882 6.79868 12.3812 6.96309C12.1743 7.12749 12.0408 7.36715 12.01 7.62967C11.9793 7.89219 12.0537 8.15621 12.217 8.36403ZM1.502 10.867L11.954 16.867C12.068 16.9368 12.1949 16.9831 12.3271 17.003C12.4594 17.0229 12.5942 17.0161 12.7238 16.983C12.8533 16.9499 12.9749 16.8911 13.0813 16.8102C13.1878 16.7293 13.2769 16.6278 13.3435 16.5118C13.41 16.3959 13.4526 16.2677 13.4688 16.135C13.4849 16.0023 13.4743 15.8677 13.4375 15.7391C13.4008 15.6105 13.3386 15.4907 13.2547 15.3866C13.1708 15.2825 13.0668 15.1963 12.949 15.133L2.498 9.13303C2.38402 9.06488 2.25762 9.02011 2.12615 9.00134C1.99469 8.98257 1.8608 8.99017 1.73231 9.0237C1.60382 9.05723 1.48329 9.11602 1.37776 9.19663C1.27223 9.27725 1.18382 9.37807 1.11767 9.49322C1.05153 9.60838 1.00899 9.73555 0.992521 9.86732C0.976057 9.99909 0.986004 10.1328 1.02178 10.2607C1.05756 10.3886 1.11845 10.5081 1.2009 10.6122C1.28335 10.7163 1.38571 10.8029 1.502 10.867ZM3 22H10C10.2652 22 10.5196 21.8947 10.7071 21.7071C10.8946 21.5196 11 21.2652 11 21C11 20.7348 10.8946 20.4805 10.7071 20.2929C10.5196 20.1054 10.2652 20 10 20H3C2.73478 20 2.48043 20.1054 2.29289 20.2929C2.10536 20.4805 2 20.7348 2 21C2 21.2652 2.10536 21.5196 2.29289 21.7071C2.48043 21.8947 2.73478 22 3 22Z" fill="#2D74FF"/>
</svg>
