<svg width="182" height="88" viewBox="0 0 182 88" fill="none" xmlns="http://www.w3.org/2000/svg">
<path d="M11.1927 86.6701C1.15069 77.3961 -3.68531 61.5321 7.15269 50.8701C9.83469 48.2341 13.0807 46.2701 16.5527 44.8701C16.6907 44.8201 16.8267 44.7641 16.9647 44.7141" stroke="#5AC8FA" stroke-width="1.45406" stroke-miterlimit="10"/>
<path d="M75.3927 7.98999C85.4847 8.84999 89.3367 13.42 94.1667 19.428C94.5667 19.926 94.9527 20.428 95.3327 20.93C99.6527 26.628 102.887 35.604 111.621 34.488C118.445 33.614 124.287 29.302 130.401 26.51C140.479 21.91 152.601 17.366 163.435 22.24C175.047 27.462 180.769 41.7 180.993 53.71C181.211 65.784 176.087 81.222 164.337 86.67" stroke="#5AC8FA" stroke-width="1.45406" stroke-miterlimit="10"/>
<path d="M82.3227 31.5824C82.1865 36.9624 80.3759 42.166 77.1427 46.4684C77.1353 46.4752 77.1291 46.4832 77.1247 46.4924C76.8187 46.8224 76.5067 47.1524 76.1887 47.4704C73.6503 50.0188 70.6329 52.0402 67.3105 53.4184C63.9879 54.7964 60.4257 55.504 56.8287 55.5004H56.7547C52.6027 55.5004 48.4527 55.5144 44.3067 55.5144C41.0347 55.5144 37.7247 55.7144 34.4847 55.2404C33.4427 55.0904 32.4587 54.7604 31.3927 54.8084C27.3287 54.9964 24.5367 58.8424 22.6107 61.9524C22.5853 61.9928 22.5511 62.027 22.5107 62.0524C22.4963 62.0168 22.4895 61.9786 22.4907 61.9404C22.7467 57.2524 21.7307 52.4044 19.3927 48.3204C19.3507 48.2404 19.3067 48.1644 19.2627 48.0904C17.9607 45.8904 16.2267 44.0004 15.1107 41.6904C13.1793 37.6746 12.3125 33.2298 12.5933 28.7826C12.8741 24.3354 14.2933 20.035 16.7145 16.294C19.1359 12.5532 22.4779 9.49742 26.4201 7.41982C30.3623 5.34242 34.7721 4.31301 39.2267 4.43041L57.0467 4.91042C63.9351 5.09622 70.4679 8.01041 75.2079 13.0122C79.9479 18.014 82.5071 24.6938 82.3227 31.5824Z" fill="#5AC8FA"/>
<path d="M84.2047 28.1181C84.2145 34.9001 81.6967 41.4425 77.1427 46.4681C77.1353 46.4749 77.1291 46.4831 77.1247 46.4921C76.8187 46.8221 76.5067 47.1521 76.1887 47.4701C73.6503 50.0185 70.6329 52.0399 67.3105 53.4181C63.9879 54.7961 60.4257 55.5037 56.8287 55.5001H56.7547C52.6027 55.5001 48.4527 55.5141 44.3067 55.5141C41.0347 55.5141 37.7247 55.7141 34.4847 55.2401C33.4427 55.0901 32.4587 54.7601 31.3927 54.8081C27.3287 54.9961 24.5367 58.8421 22.6107 61.9521C22.5853 61.9925 22.5511 62.0267 22.5107 62.0521C22.4649 62.0807 22.4121 62.0963 22.3581 62.0975C22.3041 62.0985 22.2509 62.0847 22.2041 62.0579C22.1573 62.0309 22.1187 61.9919 22.0923 61.9447C22.0659 61.8975 22.0529 61.8441 22.0547 61.7901C22.1927 56.8401 20.9827 51.7681 18.4027 47.5281C18.3587 47.4481 18.3087 47.3661 18.2587 47.2921C16.8247 45.0161 14.9487 43.0721 13.7087 40.6721C11.5553 36.4981 10.5119 31.8403 10.6785 27.1467C10.8451 22.4529 12.2163 17.8809 14.6601 13.8701C17.1041 9.85928 20.5385 6.54448 24.6333 4.24448C28.7283 1.94428 33.3459 0.736084 38.0427 0.736084H56.8287C60.4241 0.736284 63.9845 1.44468 67.3061 2.82108C70.6277 4.19728 73.6459 6.21428 76.1879 8.75688C78.7301 11.2997 80.7465 14.3181 82.1221 17.6401C83.4975 20.9621 84.2053 24.5225 84.2047 28.1181Z" stroke="#007AFF" stroke-width="1.45406" stroke-miterlimit="10"/>
<path d="M67.7446 13.5461H52.1926C49.566 13.5461 47.4366 15.6755 47.4366 18.3021V39.3101C47.4366 41.9369 49.566 44.0663 52.1926 44.0663H67.7446C70.3712 44.0663 72.5006 41.9369 72.5006 39.3101V18.3021C72.5006 15.6755 70.3712 13.5461 67.7446 13.5461Z" fill="#F5F5F5"/>
<path d="M60.1087 22.014C61.1735 22.014 62.0367 21.1508 62.0367 20.086C62.0367 19.0212 61.1735 18.158 60.1087 18.158C59.0439 18.158 58.1807 19.0212 58.1807 20.086C58.1807 21.1508 59.0439 22.014 60.1087 22.014Z" fill="#5AC8FA"/>
<path d="M54.7227 28.8064C54.7227 27.3778 55.2901 26.008 56.3003 24.9978C57.3103 23.9878 58.6803 23.4204 60.1087 23.4204C61.5371 23.4204 62.9071 23.9878 63.9171 24.9978C64.9273 26.008 65.4947 27.3778 65.4947 28.8064H54.7227Z" fill="#5AC8FA"/>
<path d="M64.7267 33.4041H55.2087C53.8557 33.4041 52.7587 34.5009 52.7587 35.8541V37.0561C52.7587 38.4091 53.8557 39.5061 55.2087 39.5061H64.7267C66.0799 39.5061 67.1767 38.4091 67.1767 37.0561V35.8541C67.1767 34.5009 66.0799 33.4041 64.7267 33.4041Z" fill="#5AC8FA"/>
<path d="M39.6207 23.2798H24.4827" stroke="white" stroke-width="1.45406" stroke-linecap="round" stroke-linejoin="round"/>
<path d="M39.6207 26.8206H24.4827" stroke="white" stroke-width="1.45406" stroke-linecap="round" stroke-linejoin="round"/>
<path d="M39.6207 29.9797H24.4827" stroke="white" stroke-width="1.45406" stroke-linecap="round" stroke-linejoin="round"/>
<path d="M39.6207 33.5205H24.4827" stroke="white" stroke-width="1.45406" stroke-linecap="round" stroke-linejoin="round"/>
<path d="M39.6207 20.1206H24.4827" stroke="white" stroke-width="1.45406" stroke-linecap="round" stroke-linejoin="round"/>
<path d="M39.6207 36.6821H24.4827" stroke="white" stroke-width="1.45406" stroke-linecap="round" stroke-linejoin="round"/>
<path d="M43.8507 59.6561C43.8507 59.6561 36.8407 58.9781 37.5987 51.8561C38.3567 44.7341 39.7347 45.056 46.0307 42.094C46.0307 42.094 51.1727 42.0701 52.6067 43.6121C54.0407 45.1541 54.8727 42.1001 54.8727 42.1001C54.8727 42.1001 61.5727 33.672 69.9367 35.444C78.3007 37.216 63.4087 43.9241 63.4087 43.9241C63.4087 43.9241 53.7987 44.056 56.2847 47.622C56.2847 47.622 57.7307 50.3041 56.8987 52.5381C56.0667 54.7721 56.0767 58.356 55.5267 58.46C54.9767 58.564 46.7707 60.3521 46.7707 60.3521L43.8507 59.6561Z" fill="white"/>
<path d="M109.351 86.6724H89.8787C86.6539 86.6772 83.4597 86.0462 80.4787 84.8156C77.4979 83.585 74.7889 81.7788 72.5067 79.5004C72.5051 79.9756 72.4547 80.4494 72.3567 80.9144V67.9424C65.9567 60.4684 58.5007 64.2704 57.4987 64.8324C57.0547 60.5864 56.6627 57.2324 56.6627 57.2324C56.6627 57.2324 55.5847 48.1244 64.0247 44.7904C64.0927 44.7604 64.1607 44.7344 64.2247 44.7104C68.1747 43.2204 71.7527 43.9564 74.7387 45.4204C74.7887 45.4504 74.8387 45.4704 74.8887 45.5004C78.0427 47.0844 80.5167 49.4664 82.0447 50.8564C82.2067 50.9984 82.3567 51.1364 82.4987 51.2564C84.0707 52.6284 88.1707 56.6804 92.7767 59.9464L92.8527 60.0024C96.2367 62.3884 99.8887 64.3524 103.007 64.5204C103.013 64.5324 110.909 72.4744 109.351 86.6724Z" fill="#007AFF" fill-opacity="0.15"/>
<path d="M107.755 63.3601C105.941 64.0781 104.383 64.4821 102.869 64.5321C102.076 64.5581 101.284 64.4801 100.513 64.3001C98.2427 63.8021 95.8627 62.4301 92.7127 60.0061L92.6387 59.9501C89.9207 57.8681 86.6387 55.0061 82.3587 51.2601C82.2167 51.1361 82.0667 50.9981 81.9047 50.8601C81.4867 50.4981 81.0567 50.1241 80.6207 49.7381C78.8169 48.1223 76.8473 46.7017 74.7447 45.5001C74.6947 45.4701 74.6447 45.4501 74.5947 45.4201C74.3947 45.3021 74.1847 45.1961 73.9787 45.0901C73.5155 44.8513 73.0365 44.6447 72.5447 44.4721C71.3399 44.0413 70.0721 43.8123 68.7927 43.7941L68.0067 43.8141C57.8727 44.1121 55.6407 46.4681 55.6407 46.4681C56.6717 47.8745 57.3045 49.5327 57.4727 51.2681C56.6367 51.1321 55.8027 51.3921 55.6587 52.3161C55.4847 53.4501 55.2227 54.4901 54.1687 55.1581C53.5261 55.5337 52.7665 55.6555 52.0387 55.5001C52.0387 55.5001 52.0247 55.5001 52.0187 55.5001C51.8067 55.4381 51.6007 55.3881 51.4187 55.3501C51.3377 55.3311 51.2583 55.3063 51.1807 55.2761C49.0567 54.5021 47.8167 54.8021 48.2207 57.0761C48.6947 59.7501 45.2047 60.1001 42.9047 59.6881C38.8467 57.8621 37.7367 50.7381 40.9527 46.3501C41.0347 46.2381 41.1267 46.1201 41.2207 46.0001C41.3147 45.8801 41.4207 45.7701 41.5147 45.6581C41.7547 45.3975 42.0105 45.1517 42.2807 44.9221C42.3747 44.8421 42.4687 44.7601 42.5667 44.6861C42.6647 44.6121 42.8047 44.5041 42.9227 44.4181C43.0375 44.3267 43.1585 44.2433 43.2847 44.1681C44.3729 43.4523 45.5957 42.9653 46.8781 42.7369C48.1607 42.5087 49.4761 42.5437 50.7447 42.8401C51.7677 43.2037 52.7285 43.7231 53.5927 44.3801C53.5927 44.3801 53.6727 44.2561 53.8347 44.0321C54.2109 44.2547 54.5729 44.5005 54.9187 44.7681C54.9187 44.7681 61.0087 35.4801 69.8407 35.5861C70.5523 35.5923 71.2613 35.6761 71.9547 35.8361C78.8427 38.2721 83.5167 47.0481 87.7307 48.3941C88.0501 48.4959 88.3745 48.5813 88.7027 48.6501C91.9627 49.3481 95.6087 48.5881 98.8447 48.3821C100.977 48.2461 103.165 48.2961 105.227 48.8681C105.483 48.9381 105.745 49.0241 106.001 49.1181H106.013C108.893 50.1521 111.729 52.4461 112.433 55.4941C113.223 58.8721 110.653 62.0321 107.755 63.3601Z" fill="#5AC8FA"/>
<path d="M168.205 35.9002C168.117 36.2554 167.951 36.5864 167.717 36.868C167.484 37.1496 167.19 37.3746 166.857 37.5262L161.247 40.2002L148.751 44.7822L149.951 40.6122C150.323 40.066 150.855 39.6472 151.473 39.4122L162.327 35.2542L164.993 34.2142C165.522 34.0214 166.102 34.017 166.635 34.2022C167.167 34.3872 167.619 34.7504 167.915 35.2302C168.045 35.4374 168.143 35.6634 168.205 35.9002Z" fill="#5AC8FA"/>
<path d="M162.333 34.0642L165.003 33.0142C165.596 32.7968 166.25 32.8176 166.829 33.0724C167.407 33.327 167.864 33.7958 168.104 34.3804C168.344 34.9648 168.349 35.6196 168.116 36.2072C167.884 36.795 167.433 37.2698 166.859 37.5322L161.249 40.2042L152.909 80.6042C152.44 82.3452 151.41 83.8832 149.979 84.9802C148.548 86.0772 146.796 86.6718 144.993 86.6722H89.7287C86.5039 86.677 83.3097 86.046 80.3289 84.8154C77.3481 83.5848 74.6391 81.7786 72.3567 79.5002" stroke="#007AFF" stroke-width="1.45406" stroke-miterlimit="10"/>
<path d="M143.065 59.5525L142.891 60.0325C139.725 68.4905 139.363 73.4325 139.363 73.4325" stroke="#007AFF" stroke-width="1.45406" stroke-miterlimit="10"/>
<path d="M58.9747 81.1362L56.5127 56.0182C56.5109 53.6336 57.2069 51.3004 58.5151 49.3066C59.8233 47.313 61.6865 45.7456 63.8747 44.7982C65.4739 44.0884 67.2121 43.747 68.9609 43.7988C70.7097 43.8508 72.4245 44.2948 73.9787 45.0982C74.1787 45.2042 74.3887 45.3102 74.5947 45.4282C74.6447 45.4602 74.6947 45.4782 74.7447 45.5082C76.8457 46.7086 78.8141 48.1278 80.6167 49.7422C81.0527 50.1282 81.4827 50.5022 81.9007 50.8642C82.0627 51.0062 82.2127 51.1442 82.3547 51.2642C86.6307 55.0102 89.9167 57.8642 92.6347 59.9542L92.7087 60.0102C96.9587 63.2762 99.8027 64.6282 102.863 64.5282C104.795 64.4662 106.809 63.8182 109.313 62.7082C118.663 58.5562 134.377 61.2682 139.775 71.6582" stroke="#007AFF" stroke-width="1.45406" stroke-miterlimit="10"/>
<path d="M65.1707 86.66C65.3027 86.66 65.4267 86.672 65.5507 86.672C67.3541 86.672 69.0839 85.9556 70.3591 84.6804C71.6343 83.405 72.3507 81.6754 72.3507 79.872V60.5" stroke="#007AFF" stroke-width="1.45406" stroke-miterlimit="10"/>
<path d="M57.4667 51.2681C56.7367 43.8941 48.0807 39.7181 41.9587 43.7641C41.8587 43.8201 41.7587 43.8881 41.6667 43.9641L41.5907 44.0201C41.4727 44.1081 41.3547 44.1961 41.2367 44.2881C40.8605 44.5849 40.5081 44.9105 40.1827 45.2621C40.0827 45.3741 39.9827 45.4921 39.8887 45.6041C39.7947 45.7161 39.7027 45.8421 39.6207 45.9541" stroke="#007AFF" stroke-width="1.45406" stroke-miterlimit="10"/>
<path d="M42.9187 59.6704C44.0489 60.7974 45.3807 61.7024 46.8447 62.3384C52.7167 64.7064 55.5667 60.2324 55.5667 60.2324" stroke="#007AFF" stroke-width="1.45406" stroke-miterlimit="10"/>
<path d="M106.129 63.9661C106.309 63.9021 106.491 63.8401 106.665 63.7841L106.721 63.7661C106.768 63.7521 106.814 63.7353 106.859 63.7161C107.013 63.6661 107.163 63.6101 107.319 63.5481L107.613 63.4301C110.567 62.1361 113.237 58.9301 112.441 55.4921C111.669 52.1721 108.371 49.7441 105.241 48.8681C103.179 48.2961 100.991 48.2461 98.8587 48.3821C95.2927 48.6061 91.2347 49.5101 87.7387 48.3941C82.8587 46.8361 77.3547 35.3061 68.5227 35.1941C59.6907 35.0821 53.5927 44.3781 53.5927 44.3781" stroke="#007AFF" stroke-width="1.45406" stroke-miterlimit="10"/>
<path d="M55.6387 46.4721C55.6387 46.4721 57.4667 43.9961 68.2727 43.7961" stroke="#007AFF" stroke-width="1.45406" stroke-miterlimit="10"/>
<path d="M142.891 60.0323L148.251 44.9663L148.669 43.7883L150.009 40.0183C150.111 39.7315 150.256 39.4617 150.439 39.2183C150.812 38.6727 151.343 38.2541 151.961 38.0183L162.333 34.0603" stroke="#007AFF" stroke-width="1.45406" stroke-miterlimit="10"/>
<path d="M137.793 35.1944L134.963 39.9003L127.577 49.8364L126.593 45.3164C126.608 44.66 126.821 44.0234 127.205 43.4904L133.675 34.4644L134.373 33.5924C134.707 33.1376 135.189 32.8126 135.735 32.6726C136.282 32.5326 136.861 32.5861 137.373 32.8243C137.646 32.9501 137.892 33.1282 138.097 33.3484C138.17 33.661 138.181 33.985 138.128 34.3016C138.076 34.6184 137.962 34.9218 137.793 35.1944Z" fill="#5AC8FA"/>
<path d="M143.939 57.0997L134.967 39.8997L137.793 35.1917C138.041 34.7933 138.169 34.3317 138.163 33.8621C138.156 33.3927 138.014 32.9349 137.755 32.5437C137.508 32.1693 137.162 31.8713 136.755 31.6837C136.243 31.4463 135.666 31.3923 135.12 31.5307C134.573 31.6691 134.091 31.9915 133.755 32.4437L133.055 33.3236" stroke="#007AFF" stroke-width="1.45406" stroke-miterlimit="10"/>
<path d="M133.049 33.3242L126.579 42.3422C126.199 42.8794 125.99 43.5184 125.979 44.1762C125.963 44.4822 125.992 44.7886 126.065 45.0862L127.025 48.9682L127.325 50.1842L130.573 63.3242" stroke="#007AFF" stroke-width="1.45406" stroke-miterlimit="10"/>
<path d="M41.9567 43.7603C36.0687 47.4123 36.7427 57.1602 41.6107 59.3042C43.4707 60.1242 48.8107 60.3243 48.2107 57.0563C47.8107 54.7903 49.0487 54.4903 51.1747 55.2563C54.8527 56.5883 55.6307 53.0283 55.6307 52.7823" stroke="#007AFF" stroke-width="1.45406" stroke-miterlimit="10"/>
<path d="M54.4747 61.4182L56.8815 62.1344" stroke="#007AFF" stroke-width="1.45406" stroke-miterlimit="10"/>
<path d="M35.4966 72.576L33.1926 77.33C33.0316 77.6614 32.7494 77.9184 32.4044 78.048C32.0594 78.1776 31.678 78.1696 31.3386 78.026C31.1514 77.9468 30.983 77.8288 30.8448 77.6798C30.7066 77.5308 30.6016 77.354 30.5368 77.1614C30.472 76.9688 30.4488 76.7646 30.4686 76.5622C30.4886 76.36 30.5514 76.1642 30.6526 75.988L31.1006 75.206C31.1148 75.1656 31.1314 75.1262 31.1506 75.088L31.4606 74.462L34.0966 69.15C34.4158 68.4988 34.8932 67.9378 35.485 67.5186C36.0768 67.0994 36.7644 66.835 37.4846 66.75H37.5446" stroke="#007AFF" stroke-width="1.45406" stroke-miterlimit="10"/>
<path d="M40.5927 72.2037L37.1927 73.1877C37.0009 73.2435 36.7999 73.2607 36.6013 73.2387C36.4027 73.2167 36.2105 73.1557 36.0355 73.0593C35.8605 72.9629 35.7063 72.8329 35.5815 72.6769C35.4569 72.5207 35.3641 72.3417 35.3087 72.1497C35.2531 71.9579 35.2357 71.7569 35.2577 71.5583C35.2797 71.3597 35.3407 71.1675 35.4371 70.9925C35.5335 70.8175 35.6635 70.6633 35.8195 70.5385C35.9757 70.4139 36.1547 70.3211 36.3467 70.2657L41.1707 68.8657" stroke="#007AFF" stroke-width="1.45406" stroke-miterlimit="10"/>
<path d="M37.9708 72.958C38.0988 73.4742 38.019 74.02 37.7488 74.478C37.1128 75.52 35.5028 75.878 34.2448 75.666" stroke="#007AFF" stroke-width="1.45406" stroke-miterlimit="10"/>
<path d="M31.4567 74.4621C30.1407 73.5641 29.8727 71.9061 30.2787 70.4481C31.9307 64.4141 38.8247 65.8481 43.3987 66.9081C46.1247 67.5557 48.7989 68.4055 51.3987 69.4501C53.5507 70.3101 55.6567 71.4641 57.9747 71.7821" stroke="#007AFF" stroke-width="1.45406" stroke-miterlimit="10"/>
<path d="M37.7507 74.4797C37.7507 74.4797 38.2247 74.6477 39.0347 74.9657C42.5389 76.3425 45.8727 78.1183 48.9707 80.2577C50.4927 81.3057 52.4547 82.0157 54.6627 82.4897" stroke="#007AFF" stroke-width="1.45406" stroke-miterlimit="10"/>
<path d="M58.5367 77.9682C57.8179 77.846 57.0787 77.9672 56.4367 78.3128C55.7945 78.6586 55.2863 79.2088 54.9927 79.8762C53.7267 82.4762 55.4947 85.5542 58.3547 85.9942C60.7369 86.3812 63.1423 86.6078 65.5547 86.6722" stroke="#007AFF" stroke-width="1.45406" stroke-miterlimit="10"/>
<path d="M57.5052 64.9244L57.3927 64.9003C57.3927 64.9003 57.4289 64.8762 57.5052 64.832C57.4992 64.8622 57.5052 64.9003 57.5052 64.9244Z" fill="#007AFF" fill-opacity="0.15"/>
<path d="M48.6773 83.6118L20.3463 78.2278C19.6301 78.0918 18.9393 78.562 18.8031 79.2782L18.6821 79.9148C18.5461 80.631 19.0163 81.322 19.7325 81.458L48.0635 86.842C48.7797 86.9782 49.4707 86.5078 49.6067 85.7916L49.7277 85.155C49.8639 84.4388 49.3935 83.748 48.6773 83.6118Z" stroke="#007AFF" stroke-width="1.45406" stroke-miterlimit="10"/>
<path d="M23.1987 82.1182V86.6722" stroke="#007AFF" stroke-width="1.45406" stroke-miterlimit="10"/>
<path d="M2.09863 86.6719H172.063" stroke="#007AFF" stroke-width="1.45406" stroke-miterlimit="10"/>
</svg>
