<svg width="113" height="113" viewBox="0 0 113 113" fill="none" xmlns="http://www.w3.org/2000/svg">
<rect width="113" height="113" rx="32" fill="white"/>
<path fill-rule="evenodd" clip-rule="evenodd" d="M86.828 49.9614C86.828 48.7282 86.161 47.595 85.092 47.0119L54.6351 30.3978C53.6628 29.8674 52.4938 29.8674 51.5215 30.3978L24.7358 45.0093C22.4214 46.2718 22.4214 49.6458 24.7358 50.9083L51.5215 65.5198C52.4938 66.05 53.6628 66.05 54.6351 65.5198L81.767 50.7196C82.132 50.5202 82.575 50.7894 82.575 51.2112V64.3973C81.027 65.2076 79.968 66.848 79.968 68.74C79.968 71.436 82.118 73.622 84.77 73.622C87.422 73.622 89.572 71.436 89.572 68.74C89.572 66.793 88.45 65.1117 86.828 64.3283V49.9614ZM73.657 63.5195C73.657 62.2542 72.329 61.4465 71.233 62.0448L54.6351 71.099C53.6628 71.629 52.4938 71.629 51.5215 71.099L35.0612 62.1196C33.9645 61.5214 32.6365 62.329 32.6365 63.5944V71.626C32.6365 72.859 33.3035 73.992 34.3723 74.575L49.9646 83.081C51.9093 84.142 54.2473 84.142 56.192 83.081L71.921 74.5C72.99 73.917 73.657 72.784 73.657 71.551V63.5195Z" fill="#007AFF"/>
</svg>
