<svg width="15" height="15" viewBox="0 0 15 15" fill="none" xmlns="http://www.w3.org/2000/svg">
<path d="M1.59375 9.39575C1.55612 9.69163 1.5 9.99081 1.5 10.2928C1.5 11.0546 1.65058 11.7983 1.79599 12.5164C1.80636 12.5677 1.81671 12.6188 1.82698 12.6698C1.92027 13.133 2.31209 13.4842 2.78372 13.5132C3.03518 13.5286 3.28861 13.5449 3.54392 13.5614C4.82045 13.6434 6.14375 13.7285 7.49998 13.7285C8.85622 13.7285 10.1795 13.6434 11.4561 13.5614C11.7114 13.5449 11.9648 13.5286 12.2162 13.5132C12.6879 13.4842 13.0797 13.133 13.173 12.6698C13.1833 12.6188 13.1936 12.5677 13.204 12.5164C13.3494 11.7983 13.5 11.0546 13.5 10.2928C13.5 9.99081 13.4322 9.69163 13.3945 9.39575H1.59375Z" stroke="#23C3C3" stroke-width="1.5"/>
<path d="M7.50007 3.50012C4.24397 3.50012 1.60437 6.13972 1.60437 9.39582H13.3958C13.3958 6.13972 10.7562 3.50012 7.50007 3.50012Z" stroke="#23C3C3" stroke-width="1.5" stroke-linecap="round" stroke-linejoin="round"/>
<path d="M9.41157 7.50003C9.68607 7.50003 9.9086 7.2775 9.9086 7.003C9.9086 6.72851 9.68607 6.50598 9.41157 6.50598C9.13708 6.50598 8.91455 6.72851 8.91455 7.003C8.91455 7.2775 9.13708 7.50003 9.41157 7.50003Z" stroke="#23C3C3" stroke-linecap="round" stroke-linejoin="round"/>
<path d="M5.58858 7.50003C5.86307 7.50003 6.0856 7.2775 6.0856 7.003C6.0856 6.72851 5.86307 6.50598 5.58858 6.50598C5.31408 6.50598 5.09155 6.72851 5.09155 7.003C5.09155 7.2775 5.31408 7.50003 5.58858 7.50003Z" stroke="#23C3C3" stroke-linecap="round" stroke-linejoin="round"/>
<path d="M7.49992 3.48438L7.49991 1.27194" stroke="#23C3C3" stroke-width="1.5" stroke-linecap="round" stroke-linejoin="round"/>
<path d="M5.35099 13.6687L5.35099 9.39528" stroke="#23C3C3" stroke-width="1.5" stroke-linecap="round" stroke-linejoin="round"/>
<path d="M9.64882 13.6637L9.64882 9.39534" stroke="#23C3C3" stroke-width="1.5" stroke-linecap="round" stroke-linejoin="round"/>
</svg>
