<svg xmlns="http://www.w3.org/2000/svg" width="185" height="148" fill="none" viewBox="0 0 185 148"><path fill="#fff" fill-rule="evenodd" d="M176.7 54.8a9 9 0 0 0-4.8-8L87.6 1.5a9.1 9.1 0 0 0-8.6 0L4.8 41.3a9.1 9.1 0 0 0 0 16.1L79 97.3a9.3 9.3 0 0 0 8.6 0l75.1-40.4c1-.5 2.3.2 2.3 1.3v36a13.3 13.3 0 1 0 11.7-.2V54.8Zm-36.4 37c0-3.4-3.7-5.7-6.7-4l-46 24.7a9.1 9.1 0 0 1-8.6 0L33.4 88c-3-1.6-6.7.6-6.7 4v22a9 9 0 0 0 4.8 8l43.2 23.2a18.2 18.2 0 0 0 17.2 0l43.6-23.4a9 9 0 0 0 4.8-8v-22Z" clip-rule="evenodd"/></svg>